<svg width="1440" height="900" viewBox="0 0 1440 900" fill="none" xmlns="http://www.w3.org/2000/svg">
    <g clip-path="url(#clip0_1_196)">
        <rect width="1440" height="900" fill="#0B0B0B"/>
        <g opacity="0.6" filter="url(#filter0_f_1_196)">
            <path d="M1027.86 1163.62L1449.23 422.653C1453.42 415.851 1456.27 407.185 1457.42 397.75C1458.58 388.316 1457.99 378.536 1455.72 369.648C1453.46 360.761 1449.62 353.164 1444.7 347.82C1439.78 342.475 1434 339.623 1428.08 339.623H1173.05C1157.18 339.623 1141.96 329.375 1130.74 311.133C1119.52 292.891 1113.21 268.15 1113.21 242.352V-340.614C1113.21 -350.233 1111.46 -359.636 1108.17 -367.634C1104.88 -375.632 1100.21 -381.866 1094.74 -385.547C1089.28 -389.229 1083.26 -390.192 1077.46 -388.316C1071.66 -386.439 1066.33 -381.807 1062.14 -375.006L640.763 365.97C636.579 372.772 633.73 381.437 632.575 390.872C631.421 400.306 632.013 410.085 634.277 418.972C636.541 427.859 640.375 435.455 645.295 440.8C650.214 446.145 655.998 448.998 661.915 448.999H916.951C932.82 448.999 948.039 459.247 959.261 477.489C970.482 495.731 976.786 520.473 976.786 546.271V1129.24C976.784 1138.86 978.538 1148.26 981.825 1156.26C985.112 1164.26 989.785 1170.49 995.252 1174.17C1000.72 1177.86 1006.73 1178.82 1012.54 1176.94C1018.34 1175.06 1023.67 1170.43 1027.86 1163.62Z" fill="url(#paint0_linear_1_196)"/>
        </g>
    </g>
    <defs>
        <filter id="filter0_f_1_196" x="432" y="-589.25" width="1226" height="1967.12" filterUnits="userSpaceOnUse" color-interpolation-filters="sRGB">
            <feFlood flood-opacity="0" result="BackgroundImageFix"/>
            <feBlend mode="normal" in="SourceGraphic" in2="BackgroundImageFix" result="shape"/>
            <feGaussianBlur stdDeviation="100" result="effect1_foregroundBlur_1_196"/>
        </filter>
        <linearGradient id="paint0_linear_1_196" x1="1045" y1="-389.25" x2="1045" y2="1177.88" gradientUnits="userSpaceOnUse">
            <stop offset="0.234375" stop-color="#A8FE57"/>
            <stop offset="0.557292" stop-color="#F86AFB"/>
            <stop offset="0.890625" stop-color="#0FF7CD"/>
        </linearGradient>
        <clipPath id="clip0_1_196">
            <rect width="1440" height="900" fill="white"/>
        </clipPath>
    </defs>
</svg>
