<svg xmlns="http://www.w3.org/2000/svg" version="1.1" xmlns:xlink="http://www.w3.org/1999/xlink" xmlns:svgjs="http://svgjs.com/svgjs" width="1000" height="1000"><rect width="1000" height="1000" rx="200" ry="200" fill="#000000"></rect><g transform="matrix(1.9271948608137044,0,0,1.9271948608137044,49.95304338260689,246.5785163046206)"><svg xmlns="http://www.w3.org/2000/svg" version="1.1" xmlns:xlink="http://www.w3.org/1999/xlink" xmlns:svgjs="http://svgjs.com/svgjs" width="467" height="263"><svg width="467" height="263" viewBox="0 0 467 263" fill="none" xmlns="http://www.w3.org/2000/svg">
<path d="M451.714 219.157C456.766 219.157 461.583 220.007 466.259 221.223V208.749C397.797 168.941 318.344 146.105 233.55 146.105C148.757 146.105 69.3041 168.941 0.842285 208.751V221.226C5.51752 220.009 10.3324 219.159 15.3872 219.159C42.4656 219.159 65.0194 237.829 71.5054 262.99H104.71C111.196 237.829 133.752 219.159 160.828 219.159C187.904 219.159 210.46 237.829 216.946 262.99H250.15C256.636 237.829 279.192 219.159 306.269 219.159C333.345 219.159 355.901 237.829 362.387 262.99H395.591C402.082 237.827 424.635 219.157 451.714 219.157Z" fill="#BDF658"></path>
<path d="M187.896 91.4213C187.896 91.4213 276.08 73.3759 349.906 136.526C349.906 136.526 340.891 109.467 317.725 91.1145C317.725 91.1145 379.973 95.0001 466.259 191.856C466.259 191.856 369.366 0 175.375 0C175.375 0 239.332 8.21838 261.063 53.5597C261.063 53.5597 150.743 29.904 59.0202 83.902C59.0202 83.902 118.081 74.1956 143.395 92.2409C143.395 92.2409 57.2444 110.996 0.844849 191.856C69.7713 153.399 149.117 131.494 233.551 131.494C233.551 131.494 221.294 101.084 187.896 91.4213Z" fill="#BDF658"></path>
</svg></svg></g></svg>